<?xml version="1.0" encoding="UTF-8"?>
<svg width="256px" height="256px" viewBox="0 0 256 256" version="1.1" xmlns="http://www.w3.org/2000/svg" xmlns:xlink="http://www.w3.org/1999/xlink">
    <!-- Generator: Sketch 43.1 (39012) - http://www.bohemiancoding.com/sketch -->
    <title>Atomist Color Mark - Small</title>
    <desc>Created with Sketch.</desc>
    <defs></defs>
    <g id="Page-1" stroke="none" stroke-width="1" fill="none" fill-rule="evenodd">
        <g id="Atomist-Color-Mark---Small">
            <g id="Atomist-Mark---Color-Copy" style="mix-blend-mode: multiply;" transform="translate(28.000000, 22.000000)">
                <path d="M1.30688225,189.196492 L56.4082769,58.6864948 C60.3827254,49.2736312 71.9184052,45.7335172 80.5069345,51.2916042 L104.559722,66.8569175 C110.051068,70.4106987 112.907115,76.8762219 111.830762,83.3185427 L99.6162689,156.431844 C99.0964084,159.542873 97.6887713,162.438405 95.5621849,164.771994 L57.4362119,206.603376 C54.3199155,210.022075 49.9036493,211.971076 45.2723672,211.971076 L16.4589694,211.971076 C4.69903597,211.971076 -3.25878019,200.010081 1.30688225,189.196492" id="Fill-7" fill="#C6DC71"></path>
                <path d="M74.0382067,186.143501 L55.2079151,112.06873 C54.9807946,109.577174 55.2799055,107.062098 56.0826314,104.716431 L88.1518469,10.9917709 C90.3478754,4.573606 95.9723715,0.317713943 102.258161,0.317713943 C108.42163,0.317713943 113.962031,4.41118921 116.244066,10.6497739 L152.217013,109.014278 C153.680077,113.014943 153.640896,117.4822 152.107435,121.451717 L134.189448,190.886326 C131.839563,196.970757 126.371471,200.927879 120.31344,200.927879 L89.0195553,200.927879 C81.2812146,200.927879 74.8027074,194.534823 74.0382067,186.143501" id="Fill-1" fill="#297D7D" style="mix-blend-mode: multiply;"></path>
                <path d="M143.756761,203.028808 L78.447688,89.0268414 C75.3301174,82.937642 76.3246055,75.5580078 80.943146,70.5065595 L115.239926,32.9959088 C123.032737,24.4726825 136.97532,26.4258159 142.114677,36.7607364 L199.142932,151.441294 C200.729271,154.632101 201.232568,158.251357 200.575415,161.752694 L200.60727,198.584754 C199.150577,206.346116 192.359899,211.971267 184.44636,211.971267 L158.398544,211.971267 C152.222014,211.971267 146.56662,208.517288 143.756761,203.028808" id="Fill-4" fill="#1A334B" style="mix-blend-mode: multiply;"></path>
            </g>
        </g>
    </g>
</svg>